inDegrees=yes
name=ik_S46_A03_T02
DataType=double
version=3
OpenSimVersion=4.3-2021-08-27-4bc7ad9
endheader
time	pelvis_tilt	pelvis_list	pelvis_rotation	pelvis_tx	pelvis_ty	pelvis_tz	hip_flexion_r	hip_adduction_r	hip_rotation_r	knee_angle_r	knee_angle_r_beta	ankle_angle_r	subtalar_angle_r	mtp_angle_r	hip_flexion_l	hip_adduction_l	hip_rotation_l	knee_angle_l	knee_angle_l_beta	ankle_angle_l	subtalar_angle_l	mtp_angle_l	lumbar_extension	lumbar_bending	lumbar_rotation	arm_flex_r	arm_add_r	arm_rot_r	elbow_flex_r	pro_sup_r	wrist_flex_r	wrist_dev_r	arm_flex_l	arm_add_l	arm_rot_l	elbow_flex_l	pro_sup_l	wrist_flex_l	wrist_dev_l
26.39999999999953	-6.446084358177703	-6.053532948118193	-91.82049210134278	0	0.9399999999999999	0	-13.59669838081297	8.212766151525262	-0.7661840309480954	4.840737667777875	0.08448681052803533	0	0	0	16.0533777505205	-4.146920426229483	0.9031829647006924	-5.113361841066272	-0.08924499997244545	0	0	0	0	0	0	43.46092029291857	-43.46092029291857	4.985838872538614	84.80168845150541	85.01416140121108	0	0	43.46092029291857	-43.46092029291857	4.985838872538614	84.80168845150541	85.01416140120847	0	0
26.41999999999953	-6.422239673699396	-5.917874133917563	-92.35534996033357	0	0.9399999999999999	0	-13.63136017879579	8.007788218478947	-0.3373524814470287	5.971284674686872	0.1042185781471644	0	0	0	15.05459906848221	-4.470920307526792	1.990929502652023	-4.26422335553685	-0.07442473759455881	0	0	0	0	0	0	43.46115056946297	-43.46115056946297	4.98584313844709	84.80174819180887	85.0141571353028	0	0	43.46115056946297	-43.46115056946297	4.98584313844709	84.80174819180887	85.0141571353002	0	0
26.43999999999953	-6.318179067635537	-5.505540493673275	-92.92478584670616	0	0.9399999999999999	0	-14.96048073832613	7.787252912978019	-0.7772143230256729	6.235652537158982	0.1088326677837623	0	0	0	13.4409368643863	-4.425225687020104	1.599555362795175	-5.386268968357606	-0.0940081278958385	0	0	0	0	0	0	43.46070374959029	-43.46070374959029	4.985837461285993	84.80166868859361	85.01416281246365	0	0	43.46070374959029	-43.46070374959029	4.985837461285993	84.80166868859361	85.01416281246107	0	0
26.45999999999952	-6.222095117342696	-5.404068374949982	-93.25038845798905	0	0.9399999999999999	0	-15.68826953332653	7.571381529434177	-0.8454027587281743	7.917224419266704	0.1381816337355	0	0	0	10.51352733933834	-3.35968589891481	-1.969242688193795	-9.544862314480739	-0.1665892740372153	0	0	0	0	0	0	43.45920520939964	-43.45920520939964	4.985816744140133	84.80137856435421	85.0141835296088	0	0	43.45920520939964	-43.45920520939964	4.985816744140133	84.80137856435421	85.0141835296062	0	0
26.47999999999952	-5.808511851425045	-5.370225406477821	-93.91328004783993	0	0.9399999999999999	0	-16.40166851694647	6.852475719834898	-0.8445713986296423	8.917948655989438	0.1556475665708188	0	0	0	9.556369603251172	-2.842181894993263	-9.687364650763717	-9.740374801904764	-0.1700016106715286	0	0	0	0	0	0	43.46396029078657	-43.46396029078657	4.985894335183803	84.80246515696284	85.01410593856792	0	0	43.46396029078657	-43.46396029078657	4.985894335183803	84.80246515696284	85.01410593856538	0	0
26.49999999999952	-4.971621742602079	-5.134321441417041	-93.97439723590396	0	0.9399999999999999	0	-16.18018057263437	5.879280781399618	-1.122268010527161	10.51961160892541	0.1836018586067666	0	0	0	11.70014420314516	-2.634816579429196	-8.645156738445435	-6.218305235890359	-0.1085299002602894	0	0	0	0	0	0	43.46532826446608	-43.46532826446608	4.985919615903356	84.80281919122542	85.01408065784932	0	0	43.46532826446608	-43.46532826446608	4.985919615903356	84.80281919122542	85.01408065784678	0	0
26.51999999999952	-4.168442526326356	-5.058001925049008	-93.73970794463568	0	0.9399999999999999	0	-16.56149357091126	4.663947979103438	-3.040734124445385	11.10721797414498	0.1938575243855243	0	0	0	10.74564676847691	-0.5174397457539028	0.6604061828614515	-4.943228729264855	-0.08627561700484709	0	0	0	0	0	0	43.46999767494336	-43.46999767494336	4.985994779910671	84.80387179518628	85.01400549384472	0	0	43.46999767494336	-43.46999767494336	4.985994779910671	84.80387179518628	85.01400549384218	0	0
26.53999999999952	-3.4811004338978	-4.981656198674624	-93.28911774918753	0	0.9399999999999999	0	-16.14037313260158	3.21033062654313	-5.098992306816328	13.37853255573955	0.233499442182907	0	0	0	9.128273959114891	-1.681226436673716	5.879250044926674	-6.810959408366136	-0.1188736668956741	0	0	0	0	0	0	43.4724700523306	-43.4724700523306	4.986035432161972	84.80444109336833	85.01396484159487	0	0	43.4724700523306	-43.4724700523306	4.986035432161972	84.80444109336833	85.01396484159235	0	0
26.55999999999952	-3.181567552553581	-5.089007224683405	-93.01511281057613	0	0.9399999999999999	0	-15.49688056216041	1.786975990524559	-7.384630393088677	14.41623274517589	0.2516107271371399	0	0	0	8.29325766307865	-4.458541585939343	9.465302923968933	-5.795244402088108	-0.1011460957742076	0	0	0	0	0	0	43.47742509230144	-43.47742509230144	4.986114795254637	84.80555250163344	85.01388547850507	0	0	43.47742509230144	-43.47742509230144	4.986114795254637	84.80555250163344	85.01388547850257	0	0
26.57999999999952	-2.64722045459161	-5.558976875747184	-92.54001280417229	0	0.9399999999999999	0	-15.59856807869963	-1.043403930154877	-11.34509118554669	19.03118788996013	0.3321568892454765	0	0	0	7.714131549646246	-2.453078207233128	11.43095082646376	-4.126297789663647	-0.07201748234739509	0	0	0	0	0	0	43.48396460212761	-43.48396460212761	4.986218010449249	84.80699793670098	85.01378226331417	0	0	43.48396460212761	-43.48396460212761	4.986218010449249	84.80699793670098	85.01378226331168	0	0
26.59999999999952	-2.243771500469973	-6.358818493401049	-92.55582737651848	0	0.9399999999999999	0	-15.28573247897425	-3.504978178647989	-13.429582272435	22.86803947649033	0.3991225823407967	0	0	0	5.732105498741797	-0.5350192922447372	8.512832340350398	-3.88755277414718	-0.06785059575390778	0	0	0	0	0	0	43.49379485770365	-43.49379485770365	4.986371430209719	84.8091464407651	85.01362884355913	0	0	43.49379485770365	-43.49379485770365	4.986371430209719	84.8091464407651	85.01362884355667	0	0
26.61999999999952	-1.169754895729204	-7.817316750602237	-93.65963118574649	0	0.9399999999999999	0	-16.76856507402174	-5.149567446541003	-12.77315886259724	25.17987862035078	0.4394717871776485	0	0	0	3.776219919616113	1.441174494734403	4.014215804238343	-3.523283275390805	-0.06149289363601965	0	0	0	0	0	0	43.49958277482519	-43.49958277482519	4.98646371213183	84.81043876540819	85.01353656164032	0	0	43.49958277482519	-43.49958277482519	4.98646371213183	84.81043876540819	85.01353656163788	0	0
26.63999999999952	-0.7736920689551043	-8.066064483650225	-93.91736000033069	0	0.9399999999999999	0	-12.78946362335732	-8.966951747801067	-12.9474319760931	32.12176056772692	0.5606304834441178	0	0	0	1.95438779682904	2.310549649888097	0.08856640546359926	-5.563444155008741	-0.0971004182557363	0	0	0	0	0	0	43.50599023625113	-43.50599023625113	4.986563722243776	84.81183931596432	85.0134365515319	0	0	43.50599023625113	-43.50599023625113	4.986563722243776	84.81183931596432	85.01343655152944	0	0
26.65999999999952	0.1653752292963926	-8.388549682141258	-94.53768608361368	0	0.9399999999999999	0	-10.79198850210155	-11.67060263478088	-12.4135131420671	37.02160068695888	0.6461488263460269	0	0	0	-0.2555383105820178	2.687694998841944	-0.8236987703264805	-7.406241354703764	-0.1292632968369459	0	0	0	0	0	0	43.51300117441544	-43.51300117441544	4.986672192755181	84.81335834646229	85.01332808102434	0	0	43.51300117441544	-43.51300117441544	4.986672192755181	84.81335834646229	85.01332808102191	0	0
26.67999999999952	1.008623950879708	-8.433616653799884	-94.94300075955454	0	0.9399999999999999	0	-10.69435665868098	-12.58385739980188	-12.02900349182291	37.01206185595404	0.6459823423382012	0	0	0	-0.2044980755457442	3.529508000482852	-1.354915611826266	-7.40505518066794	-0.1292425941945191	0	0	0	0	0	0	43.51310737469574	-43.51310737469574	4.986674077307916	84.81338473794708	85.01332619647174	0	0	43.51310737469574	-43.51310737469574	4.986674077307916	84.81338473794708	85.01332619646929	0	0
26.69999999999952	1.789536288972237	-7.331532733636478	-94.29782605172274	0	0.9399999999999999	0	-5.561488215469501	-14.94847465120205	-15.67602389463267	41.83773289719129	0.7302061906259343	0	0	0	-0.01806245682500552	4.48407501396967	0.7332945367678803	-7.052216455068407	-0.1230843967042665	0	0	0	0	0	0	43.52187094646954	-43.52187094646954	4.986809704938747	84.81528407917499	85.01319056884572	0	0	43.52187094646954	-43.52187094646954	4.986809704938747	84.81528407917499	85.01319056884326	0	0
26.71999999999952	1.801164489454933	-7.107326864648702	-93.94598386742375	0	0.9399999999999999	0	-2.884887651456706	-16.08713965898625	-16.00867342601996	43.43099279249363	0.7580138216389403	0	0	0	-1.576386589821447	5.148013159836451	0.7299232309087285	-6.028806430975289	-0.105222522185927	0	0	0	0	0	0	43.53709770815685	-43.53709770815685	4.98705443789724	84.81871134229695	85.01294583589603	0	0	43.53709770815685	-43.53709770815685	4.98705443789724	84.81871134229695	85.01294583589352	0	0
26.73999999999952	1.524089180961356	-7.033957688699933	-93.36527958970827	0	0.9399999999999999	0	-0.253775407820468	-16.26974422125395	-16.47045386629229	45.33035573981323	0.7911639587600509	0	0	0	-2.901118217681423	5.207500944460704	-0.1259587711328668	-7.019048032704664	-0.122505498526327	0	0	0	0	0	0	43.53981157842357	-43.53981157842357	4.987096668463428	84.81930274287083	85.01290360533135	0	0	43.53981157842357	-43.53981157842357	4.987096668463428	84.81930274287083	85.01290360532883	0	0
26.75999999999952	1.139990177932761	-7.398361991199426	-92.8191630938684	0	0.9399999999999999	0	1.665604963400994	-15.85114830658581	-16.83221516306245	45.62744246176084	0.7963491002219936	0	0	0	-4.142213607658665	4.495190362174313	-0.5831657500031903	-7.093887922115524	-0.123811701008375	0	0	0	0	0	0	43.54332516907505	-43.54332516907505	4.987150235052026	84.82005289392241	85.01285003874457	0	0	43.54332516907505	-43.54332516907505	4.987150235052026	84.82005289392241	85.01285003874209	0	0
26.77999999999952	0.9246931121634364	-8.019097895661945	-92.04116618145412	0	0.9399999999999999	0	3.192771335386694	-15.65106767129609	-16.64963668198187	45.35221206725618	0.7915454236363243	0	0	0	-5.274272048962121	4.272477773012966	1.012499067405355	-6.324166748104359	-0.1103775321995639	0	0	0	0	0	0	43.54923846141244	-43.54923846141244	4.987239806194134	84.82130725568811	85.01276046760563	0	0	43.54923846141244	-43.54923846141244	4.987239806194134	84.82130725568811	85.01276046760314	0	0
